<svg width="20" height="21" viewBox="0 0 20 21" fill="none" xmlns="http://www.w3.org/2000/svg">
<path d="M20 15.5001C20 16.0894 19.7659 16.6547 19.3491 17.0714C18.9324 17.4882 18.3671 17.7223 17.7778 17.7223H2.22222C1.63285 17.7223 1.06762 17.4882 0.650874 17.0714C0.234126 16.6547 0 16.0894 0 15.5001V5.50005C0 4.91068 0.234126 4.34545 0.650874 3.92871C1.06762 3.51196 1.63285 3.27783 2.22222 3.27783H17.7778C18.3671 3.27783 18.9324 3.51196 19.3491 3.92871C19.7659 4.34545 20 4.91068 20 5.50005V15.5001Z" fill="#141414"/>
<path d="M0 7.72217H20V13.2777H0V7.72217Z" fill="#EEEEEE"/>
<path d="M17.7778 3.27783H2.22222C1.63285 3.27783 1.06762 3.51196 0.650874 3.92871C0.234126 4.34545 0 4.91068 0 5.50005L0 7.72228H20V5.50005C20 4.91068 19.7659 4.34545 19.3491 3.92871C18.9324 3.51196 18.3671 3.27783 17.7778 3.27783Z" fill="#CE1225"/>
<path d="M8.19531 12.4787C8.19531 12.4787 8.2042 12.6176 8.32531 12.6871C8.32531 12.6871 8.29087 12.7915 8.42087 12.8521C8.55087 12.9126 9.01976 13.0082 9.83587 13.0082C10.652 13.0082 11.112 12.9215 11.2336 12.8604C11.3553 12.7998 11.3636 12.6609 11.3636 12.6609C11.3636 12.6609 11.4936 12.5915 11.4853 12.5048C11.477 12.4182 11.3031 12.3226 11.3031 12.3226C11.3031 12.3226 11.2598 12.2098 11.1381 12.1665C11.0164 12.1232 10.6259 12.3576 9.8792 12.3226C9.13253 12.2876 8.70753 12.1748 8.56865 12.1837C8.42976 12.1926 8.3692 12.3315 8.3692 12.3315C8.3692 12.3315 8.21253 12.4009 8.19531 12.4787Z" fill="#BF9300"/>
<path d="M8.2894 12.4708C8.28218 12.5225 8.39384 12.6358 8.39384 12.6358C8.39384 12.6358 8.39384 12.7658 8.50662 12.8008C8.6194 12.8358 9.0794 12.9225 9.82606 12.9136C10.5727 12.9047 11.1022 12.8613 11.1627 12.8091C11.2233 12.7569 11.2755 12.6441 11.2755 12.6441C11.2755 12.6441 11.3972 12.5575 11.3883 12.488C11.3794 12.4186 11.2061 12.3752 11.2061 12.3752C11.2061 12.3752 11.1572 12.2708 11.0994 12.2275C11.0416 12.1841 10.6683 12.4008 9.8694 12.4008C9.08773 12.4008 8.63662 12.2097 8.55884 12.2186C8.48106 12.2275 8.42884 12.3747 8.42884 12.3747C8.42884 12.3747 8.29829 12.4102 8.2894 12.4708Z" fill="#EEEEEE"/>
<path d="M11.5886 9.10223C11.5886 9.10223 11.5714 8.69446 11.198 8.74612C10.8247 8.79834 10.7986 8.98057 10.3991 9.0239L10.3169 9.03168C10.2504 8.85103 10.2136 8.66078 10.208 8.46834C10.208 8.20779 10.2864 8.09501 10.0169 7.96501C9.74804 7.83501 9.69582 7.95612 9.69582 7.95612C9.69582 7.95612 9.48748 7.85168 9.39193 7.93001C9.29637 8.00834 9.34859 8.20779 9.39193 8.14723C9.43526 8.08668 9.60915 8.26001 9.60915 8.26001C9.66804 8.54834 9.50082 8.86057 9.38637 9.03446C9.34693 9.03057 9.31526 9.0289 9.27082 9.0239C8.87137 8.98057 8.84526 8.79834 8.47193 8.74612C8.09859 8.6939 8.08137 9.10223 8.08137 9.10223L7.93359 12.2533L8.23748 12.0189L8.23915 11.9817L8.87137 11.42L8.97693 11.3145L8.71526 12.0795C8.71526 12.0795 8.31582 12.0533 8.42859 12.3745C8.42859 12.3745 8.48915 12.1922 8.59359 12.2267C8.69804 12.2611 9.00137 12.3395 9.00137 12.3395L9.10582 12.5045L9.23582 12.3828L9.64359 12.3656C9.64359 12.3656 9.77359 12.4 9.76526 12.5133C9.78899 12.4646 9.79621 12.4094 9.78582 12.3561L9.90859 12.3478C9.89564 12.4037 9.90231 12.4623 9.92748 12.5139C9.91859 12.4011 10.0491 12.3661 10.0491 12.3661L10.4569 12.3833L10.5875 12.505L10.6919 12.34C10.6919 12.34 10.9953 12.2617 11.0991 12.2272C11.203 12.1928 11.2641 12.375 11.2641 12.375C11.3769 12.0539 10.9775 12.08 10.9775 12.08L10.728 11.3506L10.798 11.4206L11.4303 11.9822L11.4319 12.0195L11.7358 12.2539L11.5886 9.10223ZM9.86248 11.0122C9.23637 10.6256 9.1847 9.64946 9.1847 9.64946C9.1847 9.64946 9.57193 9.62946 9.85304 9.43223C10.1064 9.65723 10.5386 9.63168 10.5386 9.63168C10.5386 9.63168 10.5092 10.6117 9.86248 11.0122ZM11.2936 8.98112L10.7641 9.48446L10.6753 9.52001C10.5841 9.52334 10.1408 9.52446 9.86137 9.27612C9.51415 9.51946 9.03693 9.53668 9.03693 9.53668L8.96304 9.50723L8.37693 8.98112L8.22304 9.04446C8.2297 8.98168 8.26415 8.84057 8.45526 8.86834C8.76859 8.91334 8.89804 9.08557 9.22804 9.12001L9.32137 9.12946L9.28859 9.17168C9.3397 9.17168 9.41526 9.15668 9.47082 9.14446L9.53359 9.15057L9.50526 9.24946C9.5497 9.23612 9.61415 9.19779 9.66693 9.1639L9.81137 9.17779L9.84415 9.22334L9.95415 9.16834L10.028 9.16112C10.0919 9.19834 10.183 9.23168 10.183 9.23168L10.2003 9.14501C10.2786 9.19723 10.4086 9.19723 10.4086 9.19723C10.3936 9.18501 10.3786 9.1539 10.363 9.12723L10.443 9.1189C10.773 9.08446 10.9019 8.91223 11.2158 8.86723C11.4069 8.84001 11.4414 8.98057 11.448 9.04334L11.2936 8.98112Z" fill="#BF9300"/>
<path d="M9.65365 10.995L9.34087 12.1839L8.82031 12.08L9.35865 10.5522L9.65365 10.995ZM10.042 10.995L10.3542 12.1839L10.8753 12.08L10.337 10.5522L10.042 10.995Z" fill="#EEEEEE"/>
<path d="M9.3125 9.7451C9.3125 9.7451 9.35583 10.2484 9.58139 10.639V9.63232C9.58139 9.63232 9.43361 9.71899 9.3125 9.7451ZM10.3975 9.76232C10.3975 9.76232 10.3542 10.2657 10.1286 10.6562V9.64955C10.1281 9.64955 10.2758 9.73621 10.3975 9.76232Z" fill="#BF9300"/>
<path d="M9.41797 8.04346C9.41797 8.04346 9.47852 7.9829 9.65241 8.10401C9.76519 8.1829 9.86519 8.2429 9.86519 8.2429C9.86519 8.2429 9.9363 8.1679 10.0407 8.18513C10.1452 8.20235 10.0869 8.34735 10.1041 8.65068C10.1213 8.95457 10.243 9.08457 10.243 9.08457L10.0952 8.9979L10.1041 9.09346L9.93908 9.01513L9.86075 9.1279L9.78241 9.00624L9.65575 9.08346L9.61741 8.98013L9.46964 9.05846C9.46964 9.05846 9.68686 8.78957 9.70408 8.49401C9.70908 8.40568 9.68686 8.20735 9.68686 8.20735C9.68686 8.20735 9.54852 8.03457 9.41797 8.04346Z" fill="#EEEEEE"/>
<path d="M8.63899 12.5312C8.53954 12.5906 8.57843 12.6267 8.63899 12.6528C8.69954 12.679 9.06399 12.7228 9.80232 12.7395C10.5573 12.7567 11.0262 12.6701 11.0868 12.6351C11.1473 12.6006 11.1562 12.5395 11.0523 12.5223C10.9479 12.5051 10.4273 12.5917 9.79343 12.5917C9.01232 12.5923 8.68232 12.5051 8.63899 12.5312Z" fill="#BF9300"/>
</svg>
