<svg width="20" height="21" viewBox="0 0 20 21" fill="none" xmlns="http://www.w3.org/2000/svg">
<path d="M19.8289 16.3545H0.171111C0.3398 16.7595 0.624593 17.1055 0.989602 17.3489C1.35461 17.5923 1.7835 17.7222 2.22222 17.7223H17.7778C18.2165 17.7222 18.6454 17.5923 19.0104 17.3489C19.3754 17.1055 19.6602 16.7595 19.8289 16.3545ZM0 13.7284H20V15.1512H0V13.7284ZM6.38889 5.8495H20V7.27228H6.38889V5.8495ZM19.8289 4.64561C19.6602 4.24061 19.3754 3.89461 19.0104 3.65121C18.6454 3.4078 18.2165 3.27789 17.7778 3.27783H6.38889V4.64561H19.8289ZM6.38889 8.47561H20V9.89839H6.38889V8.47561ZM0 11.1017H20V12.5245H0V11.1017Z" fill="#BF0A30"/>
<path d="M6.38889 7.27162H20V8.47551H6.38889V7.27162ZM0 9.89829V11.1016H20V9.89829H6.66667H0ZM6.38889 4.64551V5.8494H20V5.49995C20 5.19717 19.9383 4.90884 19.8289 4.64551H6.38889ZM0 12.5244H20V13.7283H0V12.5244ZM0 15.5C0 15.8027 0.0616667 16.0911 0.171111 16.3544H19.8283C19.9414 16.0837 19.9997 15.7933 20 15.5V15.1505H0V15.5Z" fill="#EEEEEE"/>
<path d="M2.22222 3.27783C1.63285 3.27783 1.06762 3.51196 0.650874 3.92871C0.234126 4.34545 0 4.91068 0 5.50005L0 9.89839H6.66667V3.27783H2.22222Z" fill="#002868"/>
<path d="M3.77373 6.19169L3.33262 4.83447L2.89151 6.19169H1.46484L2.61929 7.03058L2.17818 8.38781L3.33262 7.54892L4.48707 8.38781L4.04595 7.03058L5.2004 6.19169H3.77373Z" fill="white"/>
</svg>
