<svg width="16" height="14" viewBox="0 0 16 14" fill="none" xmlns="http://www.w3.org/2000/svg">
<path d="M15.5005 6.99986C15.5005 7.16562 15.4346 7.32459 15.3174 7.4418C15.2002 7.55901 15.0413 7.62486 14.8755 7.62486H2.63409L7.19268 12.1827C7.25075 12.2407 7.29681 12.3097 7.32824 12.3855C7.35966 12.4614 7.37584 12.5427 7.37584 12.6249C7.37584 12.707 7.35966 12.7883 7.32824 12.8642C7.29681 12.94 7.25075 13.009 7.19268 13.067C7.13461 13.1251 7.06567 13.1712 6.9898 13.2026C6.91393 13.234 6.83261 13.2502 6.75049 13.2502C6.66837 13.2502 6.58705 13.234 6.51118 13.2026C6.43531 13.1712 6.36637 13.1251 6.3083 13.067L0.683304 7.44205C0.625194 7.384 0.579095 7.31507 0.547642 7.2392C0.516189 7.16332 0.5 7.08199 0.5 6.99986C0.5 6.91772 0.516189 6.8364 0.547642 6.76052C0.579095 6.68465 0.625194 6.61572 0.683304 6.55767L6.3083 0.932672C6.42558 0.815396 6.58464 0.749512 6.75049 0.749512C6.91634 0.749512 7.0754 0.815396 7.19268 0.932672C7.30996 1.04995 7.37584 1.20901 7.37584 1.37486C7.37584 1.54071 7.30996 1.69977 7.19268 1.81705L2.63409 6.37486H14.8755C15.0413 6.37486 15.2002 6.44071 15.3174 6.55792C15.4346 6.67513 15.5005 6.8341 15.5005 6.99986Z" fill="#3760F9"/>
</svg>
