<svg width="20" height="20" viewBox="0 0 20 20" fill="none" xmlns="http://www.w3.org/2000/svg">
  <path d="M5.80754 9.558L12.0575 3.308C12.1155 3.24994 12.1845 3.20388 12.2603 3.17245C12.3362 3.14102 12.4175 3.12485 12.4997 3.12485C12.5818 3.12485 12.6631 3.14102 12.739 3.17245C12.8148 3.20388 12.8838 3.24994 12.9418 3.308C12.9999 3.36607 13.046 3.43501 13.0774 3.51088C13.1088 3.58675 13.125 3.66807 13.125 3.75019C13.125 3.83231 13.1088 3.91363 13.0774 3.9895C13.046 4.06537 12.9999 4.13431 12.9418 4.19238L7.13316 10.0002L12.9418 15.808C13.0591 15.9253 13.125 16.0843 13.125 16.2502C13.125 16.416 13.0591 16.5751 12.9418 16.6924C12.8246 16.8096 12.6655 16.8755 12.4997 16.8755C12.3338 16.8755 12.1747 16.8096 12.0575 16.6924L5.80754 10.4424C5.74947 10.3843 5.70341 10.3154 5.67198 10.2395C5.64055 10.1636 5.62438 10.0823 5.62438 10.0002C5.62438 9.91804 5.64055 9.83672 5.67198 9.76085C5.70341 9.68498 5.74947 9.61604 5.80754 9.558Z" fill="#17223B"/>
</svg>