<svg width="20" height="20" viewBox="0 0 20 20" fill="none" xmlns="http://www.w3.org/2000/svg">
<path d="M9.20768 12.4582L7.66602 13.9998C7.34102 14.3248 6.82435 14.3248 6.49102 14.0082C6.39935 13.9165 6.30768 13.8332 6.21602 13.7415C5.35768 12.8748 4.58268 11.9665 3.89102 11.0165C3.20768 10.0665 2.65768 9.1165 2.25768 8.17484C1.86602 7.22484 1.66602 6.3165 1.66602 5.44984C1.66602 4.88317 1.76602 4.3415 1.96602 3.8415C2.16602 3.33317 2.48268 2.8665 2.92435 2.44984C3.45768 1.92484 4.04102 1.6665 4.65768 1.6665C4.89102 1.6665 5.12435 1.7165 5.33268 1.8165C5.54935 1.9165 5.74102 2.0665 5.89102 2.28317L7.82435 5.00817C7.97435 5.2165 8.08268 5.40817 8.15768 5.5915C8.23268 5.7665 8.27435 5.9415 8.27435 6.09984C8.27435 6.29984 8.21602 6.49984 8.09935 6.6915C7.99102 6.88317 7.83268 7.08317 7.63268 7.28317L6.99935 7.9415C6.90768 8.03317 6.86602 8.1415 6.86602 8.27484C6.86602 8.3415 6.87435 8.39984 6.89102 8.4665C6.91602 8.53317 6.94102 8.58317 6.95768 8.63317C7.10768 8.90817 7.36602 9.2665 7.73268 9.69984C8.10768 10.1332 8.50768 10.5748 8.94102 11.0165C9.02435 11.0998 9.11602 11.1832 9.19935 11.2665C9.53268 11.5915 9.54102 12.1248 9.20768 12.4582Z" fill="#597AF4"/>
<path d="M18.3083 15.2752C18.3083 15.5085 18.2667 15.7502 18.1833 15.9835C18.1583 16.0502 18.1333 16.1169 18.1 16.1835C17.9583 16.4835 17.775 16.7669 17.5333 17.0335C17.125 17.4835 16.675 17.8085 16.1667 18.0169C16.1583 18.0169 16.15 18.0252 16.1417 18.0252C15.65 18.2252 15.1167 18.3335 14.5417 18.3335C13.6917 18.3335 12.7833 18.1335 11.825 17.7252C10.8667 17.3169 9.90833 16.7669 8.95833 16.0752C8.63333 15.8335 8.30833 15.5919 8 15.3335L10.725 12.6085C10.9583 12.7835 11.1667 12.9169 11.3417 13.0085C11.3833 13.0252 11.4333 13.0502 11.4917 13.0752C11.5583 13.1002 11.625 13.1085 11.7 13.1085C11.8417 13.1085 11.95 13.0585 12.0417 12.9669L12.675 12.3419C12.8833 12.1335 13.0833 11.9752 13.275 11.8752C13.4667 11.7585 13.6583 11.7002 13.8667 11.7002C14.025 11.7002 14.1917 11.7335 14.375 11.8085C14.5583 11.8835 14.75 11.9919 14.9583 12.1335L17.7167 14.0919C17.9333 14.2419 18.0833 14.4169 18.175 14.6252C18.2583 14.8335 18.3083 15.0419 18.3083 15.2752Z" fill="#597AF4"/>
</svg>
