<svg width="16" height="16" viewBox="0 0 16 16" fill="none" xmlns="http://www.w3.org/2000/svg">
<path d="M12.25 7C12.4478 7 12.6411 7.05865 12.8056 7.16853C12.97 7.27841 13.0982 7.43459 13.1739 7.61732C13.2496 7.80004 13.2694 8.00111 13.2308 8.19509C13.1922 8.38907 13.097 8.56725 12.9571 8.70711C12.8173 8.84696 12.6391 8.9422 12.4451 8.98079C12.2511 9.01937 12.05 8.99957 11.8673 8.92388C11.6846 8.84819 11.5284 8.72002 11.4185 8.55557C11.3086 8.39112 11.25 8.19778 11.25 8C11.25 7.73478 11.3554 7.48043 11.5429 7.29289C11.7304 7.10536 11.9848 7 12.25 7ZM9 8C9 7.80222 8.94135 7.60888 8.83147 7.44443C8.72159 7.27998 8.56541 7.15181 8.38268 7.07612C8.19996 7.00043 7.99889 6.98063 7.80491 7.01922C7.61093 7.0578 7.43275 7.15304 7.29289 7.29289C7.15304 7.43275 7.0578 7.61093 7.01922 7.80491C6.98063 7.99889 7.00043 8.19996 7.07612 8.38268C7.15181 8.56541 7.27998 8.72159 7.44443 8.83147C7.60888 8.94135 7.80222 9 8 9C8.26522 9 8.51957 8.89464 8.70711 8.70711C8.89464 8.51957 9 8.26522 9 8ZM4.75 8C4.75 7.80222 4.69135 7.60888 4.58147 7.44443C4.47159 7.27998 4.31541 7.15181 4.13268 7.07612C3.94996 7.00043 3.74889 6.98063 3.55491 7.01922C3.36093 7.0578 3.18275 7.15304 3.04289 7.29289C2.90304 7.43275 2.8078 7.61093 2.76921 7.80491C2.73063 7.99889 2.75043 8.19996 2.82612 8.38268C2.90181 8.56541 3.02998 8.72159 3.19443 8.83147C3.35888 8.94135 3.55222 9 3.75 9C4.01522 9 4.26957 8.89464 4.45711 8.70711C4.64464 8.51957 4.75 8.26522 4.75 8Z" fill="#3760F9"/>
</svg>
