<svg width="20" height="20" viewBox="0 0 20 20" fill="none" xmlns="http://www.w3.org/2000/svg">
<path d="M13.2275 1.68945C13.9349 1.66948 14.7107 1.99683 15.5576 2.79688C16.4042 3.5967 16.7748 4.35233 16.7949 5.05957C16.8149 5.76693 16.4874 6.54283 15.6875 7.38965L8.8457 14.6318L8.84375 14.6338C8.56852 14.9287 8.01839 15.2247 7.62012 15.29H7.61719L4.96387 15.7432C4.78983 15.7541 4.73055 15.7666 4.61719 15.7666C4.22164 15.7665 3.87547 15.6304 3.6377 15.4043L3.63574 15.4023L3.52832 15.2871C3.29334 15.0011 3.17064 14.5963 3.22266 14.1318L3.53125 11.4316C3.55286 11.2438 3.62466 11.0005 3.7373 10.7578C3.85046 10.5142 3.98887 10.3061 4.11719 10.1748L4.12305 10.168L10.9648 2.92676C11.7648 2.08008 12.5202 1.70944 13.2275 1.68945ZM13.2764 1.9248C12.4147 1.9248 11.729 2.46421 11.1455 3.08203L4.30566 10.3301C4.16769 10.475 4.05081 10.6796 3.96875 10.8555C3.88582 11.0332 3.80661 11.2495 3.78027 11.4404L3.7793 11.4512L3.4707 14.1514C3.42545 14.531 3.50974 14.9325 3.80762 15.2139C4.10833 15.4977 4.51109 15.5494 4.87598 15.4941L4.88477 15.4932L7.56836 15.0342H7.56934C7.76649 15.0002 7.98146 14.9079 8.15332 14.8154C8.28257 14.7459 8.42424 14.6569 8.54395 14.5566L8.6543 14.4531L8.65625 14.4521L15.498 7.20996L15.499 7.20898C16.0305 6.64316 16.4905 6.00285 16.5361 5.24902C16.5775 4.56524 16.2745 3.91097 15.6592 3.25195L15.377 2.96875C14.6663 2.286 13.9745 1.92494 13.2764 1.9248Z" stroke="#9196A0"/>
<path d="M9.90234 4.08691C9.95211 4.08164 10.0019 4.10423 10.0293 4.14844L10.0488 4.20117C10.4033 6.43824 12.2168 8.1586 14.4756 8.38086H14.4766C14.5368 8.38695 14.5861 8.44275 14.584 8.50977C14.5709 8.57505 14.5113 8.62474 14.4502 8.625H14.417C12.0558 8.37965 10.1594 6.5837 9.79395 4.23633C9.78421 4.1698 9.82793 4.10304 9.90234 4.08691Z" stroke="#9196A0"/>
<path d="M2.5 18.2085H17.5C17.5301 18.2085 17.5613 18.2209 17.5869 18.2466C17.6126 18.2722 17.625 18.3033 17.625 18.3335C17.625 18.3636 17.6126 18.3948 17.5869 18.4204C17.5613 18.4461 17.5301 18.4585 17.5 18.4585H2.5C2.46985 18.4585 2.43873 18.4461 2.41309 18.4204C2.38744 18.3948 2.375 18.3636 2.375 18.3335C2.375 18.3033 2.38744 18.2722 2.41309 18.2466C2.43873 18.2209 2.46985 18.2085 2.5 18.2085Z" stroke="#9196A0"/>
</svg>
