<svg width="20" height="20" viewBox="0 0 20 20" fill="none" xmlns="http://www.w3.org/2000/svg">
<path d="M16.8753 10.1685C16.8784 10.056 16.8784 9.94354 16.8753 9.83104L18.0409 8.37479C18.102 8.29833 18.1443 8.20859 18.1644 8.11278C18.1845 8.01698 18.1818 7.9178 18.1565 7.82323C17.9651 7.10507 17.6793 6.41546 17.3065 5.77245C17.2577 5.68832 17.1899 5.61676 17.1085 5.56346C17.0271 5.51015 16.9344 5.47658 16.8378 5.46542L14.9847 5.25917C14.9076 5.17792 14.8294 5.09979 14.7503 5.02479L14.5315 3.16698C14.5203 3.07027 14.4866 2.97753 14.4331 2.89614C14.3797 2.81476 14.308 2.74699 14.2237 2.69823C13.5808 2.32577 12.8911 2.04045 12.1729 1.84979C12.0784 1.82453 11.9792 1.82183 11.8834 1.84191C11.7876 1.86199 11.6978 1.9043 11.6214 1.96542L10.169 3.12479C10.0565 3.12479 9.94403 3.12479 9.83153 3.12479L8.37528 1.96151C8.29882 1.90039 8.20907 1.85809 8.11327 1.838C8.01747 1.81792 7.91829 1.82062 7.82372 1.84589C7.10555 2.03731 6.41595 2.32314 5.77294 2.69589C5.68881 2.74473 5.61725 2.81255 5.56394 2.89392C5.51064 2.9753 5.47707 3.068 5.46591 3.16464L5.25966 5.02089C5.17841 5.09849 5.10028 5.17661 5.02528 5.25526L3.16747 5.46854C3.07076 5.47979 2.97802 5.51348 2.89663 5.56692C2.81525 5.62037 2.74748 5.69208 2.69872 5.77635C2.32633 6.41945 2.04078 7.10904 1.8495 7.82714C1.82434 7.92176 1.82177 8.02098 1.84199 8.11679C1.86221 8.21259 1.90465 8.30231 1.9659 8.3787L3.12528 9.83104C3.12528 9.94354 3.12528 10.056 3.12528 10.1685L1.962 11.6248C1.90088 11.7013 1.85858 11.791 1.83849 11.8868C1.81841 11.9826 1.82111 12.0818 1.84637 12.1764C2.0378 12.8945 2.32363 13.5841 2.69637 14.2271C2.74522 14.3113 2.81303 14.3828 2.89441 14.4361C2.97579 14.4894 3.06849 14.523 3.16512 14.5342L5.01825 14.7404C5.09585 14.8217 5.17398 14.8998 5.25262 14.9748L5.46903 16.8326C5.48028 16.9293 5.51397 17.0221 5.56741 17.1034C5.62085 17.1848 5.69257 17.2526 5.77684 17.3014C6.41994 17.6737 7.10953 17.9593 7.82762 18.1506C7.92225 18.1757 8.02147 18.1783 8.11727 18.1581C8.21308 18.1379 8.30279 18.0954 8.37919 18.0342L9.83153 16.8748C9.94403 16.8779 10.0565 16.8779 10.169 16.8748L11.6253 18.0404C11.7017 18.1015 11.7915 18.1438 11.8873 18.1639C11.9831 18.184 12.0823 18.1813 12.1768 18.156C12.8951 17.965 13.5848 17.6791 14.2276 17.306C14.3118 17.2572 14.3833 17.1894 14.4366 17.108C14.4899 17.0266 14.5235 16.9339 14.5347 16.8373L14.7409 14.9842C14.8222 14.9071 14.9003 14.829 14.9753 14.7498L16.8331 14.531C16.9298 14.5198 17.0225 14.4861 17.1039 14.4327C17.1853 14.3792 17.2531 14.3075 17.3018 14.2232C17.6742 13.5801 17.9598 12.8905 18.1511 12.1724C18.1762 12.0778 18.1788 11.9786 18.1586 11.8828C18.1384 11.787 18.0959 11.6973 18.0347 11.6209L16.8753 10.1685ZM10.0003 13.1248C9.38221 13.1248 8.77803 12.9415 8.26412 12.5981C7.75022 12.2548 7.34968 11.7667 7.11316 11.1957C6.87663 10.6247 6.81475 9.99633 6.93533 9.39014C7.0559 8.78394 7.35353 8.22712 7.79057 7.79008C8.22761 7.35304 8.78443 7.05542 9.39062 6.93484C9.99681 6.81426 10.6251 6.87614 11.1962 7.11267C11.7672 7.34919 12.2552 7.74973 12.5986 8.26364C12.942 8.77754 13.1253 9.38173 13.1253 9.99979C13.1253 10.8286 12.796 11.6235 12.21 12.2095C11.6239 12.7956 10.8291 13.1248 10.0003 13.1248Z" fill="#686E7D"/>
</svg>
