<svg width="20" height="21" viewBox="0 0 20 21" fill="none" xmlns="http://www.w3.org/2000/svg">
<g clip-path="url(#clip0_1177_8116)">
<path d="M6.37578 17.925C6.35078 17.925 6.31745 17.9417 6.29245 17.9417C4.67578 17.1417 3.35911 15.8167 2.55078 14.2C2.55078 14.175 2.56745 14.1417 2.56745 14.1167C3.58411 14.4167 4.63411 14.6417 5.67578 14.8167C5.85911 15.8667 6.07578 16.9084 6.37578 17.925Z" fill="#597AF4"/>
<path d="M17.4492 14.2084C16.6242 15.8667 15.2492 17.2084 13.5742 18.0167C13.8909 16.9584 14.1576 15.8917 14.3326 14.8167C15.3826 14.6417 16.4159 14.4167 17.4326 14.1167C17.4242 14.15 17.4492 14.1834 17.4492 14.2084Z" fill="#597AF4"/>
<path d="M17.5159 6.92507C16.4659 6.6084 15.4076 6.35007 14.3326 6.16673C14.1576 5.09173 13.8992 4.02507 13.5742 2.9834C15.2992 3.8084 16.6909 5.20007 17.5159 6.92507Z" fill="#597AF4"/>
<path d="M6.37409 3.0748C6.07409 4.09147 5.85742 5.1248 5.68242 6.1748C4.60742 6.34147 3.54076 6.60814 2.48242 6.9248C3.29076 5.2498 4.63242 3.8748 6.29076 3.0498C6.31576 3.0498 6.34909 3.0748 6.37409 3.0748Z" fill="#597AF4"/>
<path d="M12.9085 5.9915C10.9751 5.77484 9.02513 5.77484 7.0918 5.9915C7.30013 4.84984 7.5668 3.70817 7.9418 2.60817C7.95846 2.5415 7.95013 2.4915 7.95846 2.42484C8.6168 2.2665 9.2918 2.1665 10.0001 2.1665C10.7001 2.1665 11.3835 2.2665 12.0335 2.42484C12.0418 2.4915 12.0418 2.5415 12.0585 2.60817C12.4335 3.7165 12.7001 4.84984 12.9085 5.9915Z" fill="#597AF4"/>
<path d="M5.49102 13.4085C4.34102 13.2001 3.20768 12.9335 2.10768 12.5585C2.04102 12.5418 1.99102 12.5501 1.92435 12.5418C1.76602 11.8835 1.66602 11.2085 1.66602 10.5001C1.66602 9.80013 1.76602 9.1168 1.92435 8.4668C1.99102 8.45846 2.04102 8.45846 2.10768 8.4418C3.21602 8.07513 4.34102 7.80013 5.49102 7.5918C5.28268 9.52513 5.28268 11.4751 5.49102 13.4085Z" fill="#597AF4"/>
<path d="M18.3328 10.5001C18.3328 11.2085 18.2328 11.8835 18.0745 12.5418C18.0078 12.5501 17.9578 12.5418 17.8911 12.5585C16.7828 12.9251 15.6495 13.2001 14.5078 13.4085C14.7245 11.4751 14.7245 9.52513 14.5078 7.5918C15.6495 7.80013 16.7911 8.0668 17.8911 8.4418C17.9578 8.45846 18.0078 8.4668 18.0745 8.4668C18.2328 9.12513 18.3328 9.80013 18.3328 10.5001Z" fill="#597AF4"/>
<path d="M12.9085 15.0083C12.7001 16.1583 12.4335 17.2916 12.0585 18.3916C12.0418 18.4583 12.0418 18.5083 12.0335 18.575C11.3835 18.7333 10.7001 18.8333 10.0001 18.8333C9.2918 18.8333 8.6168 18.7333 7.95846 18.575C7.95013 18.5083 7.95846 18.4583 7.9418 18.3916C7.57513 17.2833 7.30013 16.1583 7.0918 15.0083C8.05846 15.1166 9.02513 15.1916 10.0001 15.1916C10.9751 15.1916 11.9501 15.1166 12.9085 15.0083Z" fill="#597AF4"/>
<path d="M13.1355 13.6359C11.0512 13.8989 8.94749 13.8989 6.86324 13.6359C6.60027 11.5517 6.60027 9.44797 6.86324 7.36373C8.94749 7.10076 11.0512 7.10076 13.1355 7.36373C13.3984 9.44797 13.3984 11.5517 13.1355 13.6359Z" fill="#597AF4"/>
</g>
<defs>
<clipPath id="clip0_1177_8116">
<rect width="20" height="20" fill="white" transform="translate(0 0.5)"/>
</clipPath>
</defs>
</svg>
