<svg width="25" height="24" viewBox="0 0 25 24" fill="none" xmlns="http://www.w3.org/2000/svg">
<path d="M22.125 22.75H2.125C1.715 22.75 1.375 22.41 1.375 22C1.375 21.59 1.715 21.25 2.125 21.25H22.125C22.535 21.25 22.875 21.59 22.875 22C22.875 22.41 22.535 22.75 22.125 22.75Z" fill="#686E7D"/>
<path d="M21.125 22.75H3.125C2.715 22.75 2.375 22.41 2.375 22V6C2.375 2.98 4.105 1.25 7.125 1.25H17.125C20.145 1.25 21.875 2.98 21.875 6V22C21.875 22.41 21.535 22.75 21.125 22.75ZM3.875 21.25H20.375V6C20.375 3.78 19.345 2.75 17.125 2.75H7.125C4.905 2.75 3.875 3.78 3.875 6V21.25Z" fill="#686E7D"/>
<path d="M15.125 22.75H9.125C8.715 22.75 8.375 22.41 8.375 22V15.94C8.375 15.01 9.135 14.25 10.065 14.25H14.195C15.125 14.25 15.885 15.01 15.885 15.94V22C15.875 22.41 15.535 22.75 15.125 22.75ZM9.875 21.25H14.375V15.94C14.375 15.84 14.295 15.75 14.185 15.75H10.055C9.95499 15.75 9.86501 15.83 9.86501 15.94V21.25H9.875Z" fill="#686E7D"/>
<path d="M12.125 11.75C11.715 11.75 11.375 11.41 11.375 11V6C11.375 5.59 11.715 5.25 12.125 5.25C12.535 5.25 12.875 5.59 12.875 6V11C12.875 11.41 12.535 11.75 12.125 11.75Z" fill="#686E7D"/>
<path d="M14.625 9.25H9.625C9.215 9.25 8.875 8.91 8.875 8.5C8.875 8.09 9.215 7.75 9.625 7.75H14.625C15.035 7.75 15.375 8.09 15.375 8.5C15.375 8.91 15.035 9.25 14.625 9.25Z" fill="#686E7D"/>
</svg>
