<svg width="25" height="24" viewBox="0 0 25 24" fill="none" xmlns="http://www.w3.org/2000/svg">
<path d="M21.1853 10.1887L13.6853 2.68875C13.404 2.40766 13.0227 2.24976 12.625 2.24976C12.2274 2.24976 11.846 2.40766 11.5647 2.68875L4.0647 10.1887C3.92473 10.3277 3.81378 10.493 3.7383 10.6752C3.66282 10.8574 3.62431 11.0528 3.62501 11.25V20.25C3.62501 20.4489 3.70403 20.6397 3.84468 20.7803C3.98533 20.921 4.1761 21 4.37501 21H10.375C10.5739 21 10.7647 20.921 10.9053 20.7803C11.046 20.6397 11.125 20.4489 11.125 20.25V15H14.125V20.25C14.125 20.4489 14.204 20.6397 14.3447 20.7803C14.4853 20.921 14.6761 21 14.875 21H20.875C21.0739 21 21.2647 20.921 21.4053 20.7803C21.546 20.6397 21.625 20.4489 21.625 20.25V11.25C21.6257 11.0528 21.5872 10.8574 21.5117 10.6752C21.4362 10.493 21.3253 10.3277 21.1853 10.1887ZM20.125 19.5H15.625V14.25C15.625 14.0511 15.546 13.8603 15.4053 13.7197C15.2647 13.579 15.0739 13.5 14.875 13.5H10.375C10.1761 13.5 9.98533 13.579 9.84468 13.7197C9.70403 13.8603 9.62501 14.0511 9.62501 14.25V19.5H5.12501V11.25L12.625 3.75L20.125 11.25V19.5Z" fill="#686E7D"/>
</svg>
