<svg width="25" height="24" viewBox="0 0 25 24" fill="none" xmlns="http://www.w3.org/2000/svg">
<path d="M21.625 11.25V20.25C21.625 20.449 21.546 20.6397 21.4053 20.7804C21.2647 20.921 21.0739 21 20.875 21H15.625C15.4261 21 15.2353 20.921 15.0947 20.7804C14.954 20.6397 14.875 20.449 14.875 20.25V15.375C14.875 15.2756 14.8355 15.1802 14.7652 15.1099C14.6948 15.0395 14.5995 15 14.5 15H10.75C10.6505 15 10.5552 15.0395 10.4848 15.1099C10.4145 15.1802 10.375 15.2756 10.375 15.375V20.25C10.375 20.449 10.296 20.6397 10.1553 20.7804C10.0147 20.921 9.82391 21 9.625 21H4.375C4.17609 21 3.98532 20.921 3.84467 20.7804C3.70402 20.6397 3.625 20.449 3.625 20.25V11.25C3.62518 10.8523 3.78334 10.4709 4.06469 10.1897L11.5647 2.68972C11.846 2.40863 12.2273 2.25073 12.625 2.25073C13.0227 2.25073 13.404 2.40863 13.6853 2.68972L21.1853 10.1897C21.4667 10.4709 21.6248 10.8523 21.625 11.25Z" fill="#597AF4"/>
</svg>
