<svg width="20" height="21" viewBox="0 0 20 21" fill="none" xmlns="http://www.w3.org/2000/svg">
<path d="M6.25 10.5C6.25 10.3342 6.31585 10.1753 6.43306 10.0581C6.55027 9.94085 6.70924 9.875 6.875 9.875H12.5V5.8125C12.5 4.5625 11.1801 3.625 10 3.625H4.0625C3.48253 3.62562 2.92649 3.85629 2.51639 4.26639C2.10629 4.67649 1.87562 5.23253 1.875 5.8125V15.1875C1.87562 15.7675 2.10629 16.3235 2.51639 16.7336C2.92649 17.1437 3.48253 17.3744 4.0625 17.375H10.3125C10.8925 17.3744 11.4485 17.1437 11.8586 16.7336C12.2687 16.3235 12.4994 15.7675 12.5 15.1875V11.125H6.875C6.70924 11.125 6.55027 11.0592 6.43306 10.9419C6.31585 10.8247 6.25 10.6658 6.25 10.5ZM17.9418 10.0582L14.8168 6.9332C14.6986 6.82094 14.5413 6.75928 14.3783 6.76137C14.2153 6.76345 14.0596 6.82912 13.9444 6.94437C13.8291 7.05962 13.7635 7.21534 13.7614 7.37831C13.7593 7.54129 13.8209 7.69863 13.9332 7.8168L15.991 9.875H12.5V11.125H15.991L13.9332 13.1832C13.8727 13.2407 13.8244 13.3096 13.791 13.3861C13.7576 13.4625 13.7398 13.5449 13.7387 13.6283C13.7377 13.7117 13.7533 13.7945 13.7847 13.8718C13.8162 13.9491 13.8628 14.0193 13.9217 14.0783C13.9807 14.1372 14.0509 14.1838 14.1282 14.2153C14.2055 14.2467 14.2883 14.2623 14.3717 14.2613C14.4551 14.2602 14.5375 14.2424 14.6139 14.209C14.6904 14.1756 14.7593 14.1273 14.8168 14.0668L17.9418 10.9418C18.0589 10.8246 18.1247 10.6657 18.1247 10.5C18.1247 10.3343 18.0589 10.1754 17.9418 10.0582Z" fill="#FF5F56"/>
</svg>
