<svg width="20" height="21" viewBox="0 0 20 21" fill="none" xmlns="http://www.w3.org/2000/svg">
<path d="M9.99935 2.1665C5.39935 2.1665 1.66602 5.89984 1.66602 10.4998C1.66602 15.0998 5.39935 18.8332 9.99935 18.8332C14.5993 18.8332 18.3327 15.0998 18.3327 10.4998C18.3327 5.89984 14.5993 2.1665 9.99935 2.1665ZM14.166 15.0582C12.741 15.0582 11.4077 14.4415 10.341 13.2998C9.13268 14.3915 7.55768 15.0582 5.83268 15.0582C5.49102 15.0582 5.20768 14.7748 5.20768 14.4332C5.20768 14.0915 5.49102 13.8082 5.83268 13.8082C8.72435 13.8082 11.116 11.5165 11.4243 8.58317H9.99935H5.84102C5.49935 8.58317 5.21602 8.29984 5.21602 7.95817C5.21602 7.6165 5.49935 7.3415 5.84102 7.3415H9.37435V6.5665C9.37435 6.22484 9.65768 5.9415 9.99935 5.9415C10.341 5.9415 10.6243 6.22484 10.6243 6.5665V7.3415H12.0327C12.0493 7.3415 12.066 7.33317 12.0827 7.33317C12.0993 7.33317 12.116 7.3415 12.1327 7.3415H14.1577C14.4993 7.3415 14.7827 7.62484 14.7827 7.9665C14.7827 8.30817 14.4993 8.5915 14.1577 8.5915H12.6743C12.5493 10.0165 12.016 11.3248 11.1993 12.3915C12.0327 13.3165 13.0743 13.8165 14.166 13.8165C14.5077 13.8165 14.791 14.0998 14.791 14.4415C14.791 14.7832 14.5077 15.0582 14.166 15.0582Z" fill="#597AF4"/>
</svg>
