<svg width="20" height="21" viewBox="0 0 20 21" fill="none" xmlns="http://www.w3.org/2000/svg">
<path d="M17.1612 3.9752C16.4217 3.24442 15.4258 2.83171 14.3862 2.8252H5.57787C5.06103 2.82411 4.54906 2.92509 4.07135 3.12237C3.59364 3.31965 3.1596 3.60934 2.79414 3.9748C2.42867 4.34026 2.13899 4.77431 1.94171 5.25202C1.74443 5.72973 1.64344 6.2417 1.64454 6.75854V12.2585C1.64344 12.7754 1.74443 13.2873 1.94171 13.7651C2.13899 14.2428 2.42867 14.6768 2.79414 15.0423C3.1596 15.4077 3.59364 15.6974 4.07135 15.8947C4.54906 16.092 5.06103 16.193 5.57787 16.1919H7.54454L9.16121 17.8085C9.27204 17.9252 9.40537 18.0194 9.55287 18.0835C9.69659 18.1443 9.85102 18.1756 10.007 18.1756C10.1631 18.1756 10.3175 18.1443 10.4612 18.0835C10.601 18.0211 10.7281 17.9335 10.8362 17.8252L12.5029 16.1585H14.4445C15.4851 16.1565 16.4826 15.7431 17.2195 15.0085C17.5764 14.6408 17.8593 14.208 18.0529 13.7335C18.2516 13.2555 18.3535 12.7429 18.3529 12.2252V6.7252C18.336 5.6868 17.9073 4.69763 17.1612 3.9752ZM12.9279 10.3919H10.8029V12.5002C10.8029 12.7212 10.7151 12.9332 10.5588 13.0895C10.4025 13.2457 10.1906 13.3335 9.96954 13.3335C9.74853 13.3335 9.53657 13.2457 9.38028 13.0895C9.224 12.9332 9.13621 12.7212 9.13621 12.5002V10.3919H7.02787C6.80686 10.3919 6.5949 10.3041 6.43862 10.1478C6.28234 9.99151 6.19454 9.77955 6.19454 9.55854C6.19454 9.33752 6.28234 9.12556 6.43862 8.96928C6.5949 8.813 6.80686 8.7252 7.02787 8.7252H9.13621V6.6002C9.13621 6.37919 9.224 6.16723 9.38028 6.01095C9.53657 5.85467 9.74853 5.76687 9.96954 5.76687C10.1906 5.76687 10.4025 5.85467 10.5588 6.01095C10.7151 6.16723 10.8029 6.37919 10.8029 6.6002V8.7252H12.9279C13.1489 8.7252 13.3608 8.813 13.5171 8.96928C13.6734 9.12556 13.7612 9.33752 13.7612 9.55854C13.7612 9.77955 13.6734 9.99151 13.5171 10.1478C13.3608 10.3041 13.1489 10.3919 12.9279 10.3919Z" fill="#597AF4"/>
</svg>
