<svg width="20" height="21" viewBox="0 0 20 21" fill="none" xmlns="http://www.w3.org/2000/svg">
<path d="M14.7917 3.77917V2.6875C14.7917 2.52174 14.7258 2.36277 14.6086 2.24556C14.4914 2.12835 14.3324 2.0625 14.1667 2.0625C14.0009 2.0625 13.8419 2.12835 13.7247 2.24556C13.6075 2.36277 13.5417 2.52174 13.5417 2.6875V3.72917H6.45833V2.6875C6.45833 2.52174 6.39249 2.36277 6.27528 2.24556C6.15806 2.12835 5.99909 2.0625 5.83333 2.0625C5.66757 2.0625 5.5086 2.12835 5.39139 2.24556C5.27418 2.36277 5.20833 2.52174 5.20833 2.6875V3.77917C4.27944 3.9294 3.4342 4.40496 2.82359 5.1209C2.21298 5.83684 1.87677 6.74654 1.875 7.6875V14.9792C1.875 15.499 1.97739 16.0137 2.17631 16.494C2.37524 16.9742 2.6668 17.4106 3.03437 17.7781C3.7767 18.5205 4.78352 18.9375 5.83333 18.9375H14.1667C14.6865 18.9375 15.2012 18.8351 15.6815 18.6362C16.1617 18.4373 16.5981 18.1457 16.9656 17.7781C17.3332 17.4106 17.6248 16.9742 17.8237 16.494C18.0226 16.0137 18.125 15.499 18.125 14.9792V7.6875C18.1232 6.74654 17.787 5.83684 17.1764 5.1209C16.5658 4.40496 15.7206 3.9294 14.7917 3.77917ZM12.0833 13.5958H10.6167V15.0458C10.6167 15.1279 10.6005 15.2092 10.5691 15.285C10.5377 15.3608 10.4916 15.4297 10.4336 15.4878C10.3756 15.5458 10.3067 15.5918 10.2308 15.6233C10.155 15.6547 10.0737 15.6708 9.99167 15.6708C9.90959 15.6708 9.82832 15.6547 9.75249 15.6233C9.67666 15.5918 9.60776 15.5458 9.54973 15.4878C9.49169 15.4297 9.44565 15.3608 9.41424 15.285C9.38283 15.2092 9.36667 15.1279 9.36667 15.0458V13.5958H7.91667C7.75091 13.5958 7.59194 13.53 7.47473 13.4128C7.35751 13.2956 7.29167 13.1366 7.29167 12.9708C7.29167 12.8051 7.35751 12.6461 7.47473 12.5289C7.59194 12.4117 7.75091 12.3458 7.91667 12.3458H9.36667V10.8792C9.36667 10.7971 9.38283 10.7158 9.41424 10.64C9.44565 10.5642 9.49169 10.4953 9.54973 10.4372C9.60776 10.3792 9.67666 10.3332 9.75249 10.3017C9.82832 10.2703 9.90959 10.2542 9.99167 10.2542C10.0737 10.2542 10.155 10.2703 10.2308 10.3017C10.3067 10.3332 10.3756 10.3792 10.4336 10.4372C10.4916 10.4953 10.5377 10.5642 10.5691 10.64C10.6005 10.7158 10.6167 10.7971 10.6167 10.8792V12.3458H12.0833C12.2491 12.3458 12.4081 12.4117 12.5253 12.5289C12.6425 12.6461 12.7083 12.8051 12.7083 12.9708C12.7083 13.1366 12.6425 13.2956 12.5253 13.4128C12.4081 13.53 12.2491 13.5958 12.0833 13.5958ZM16.875 7.87083H3.125V7.6625C3.12582 7.05425 3.33199 6.4641 3.71012 5.98766C4.08824 5.51122 4.61616 5.17642 5.20833 5.0375V5.99583C5.20833 6.16159 5.27418 6.32056 5.39139 6.43777C5.5086 6.55499 5.66757 6.62083 5.83333 6.62083C5.99909 6.62083 6.15806 6.55499 6.27528 6.43777C6.39249 6.32056 6.45833 6.16159 6.45833 5.99583V4.95417H13.5417V5.99583C13.5417 6.16159 13.6075 6.32056 13.7247 6.43777C13.8419 6.55499 14.0009 6.62083 14.1667 6.62083C14.3324 6.62083 14.4914 6.55499 14.6086 6.43777C14.7258 6.32056 14.7917 6.16159 14.7917 5.99583V5.0375C15.3838 5.17642 15.9118 5.51122 16.2899 5.98766C16.668 6.4641 16.8742 7.05425 16.875 7.6625V7.87083Z" fill="#597AF4"/>
</svg>
