<svg width="20" height="21" viewBox="0 0 20 21" fill="none" xmlns="http://www.w3.org/2000/svg">
<path d="M17.1651 3.97522C16.8018 3.60924 16.3694 3.31911 15.893 3.12169C15.4167 2.92427 14.9058 2.82349 14.3901 2.82522H5.58178C5.06494 2.82412 4.55297 2.92511 4.07526 3.12239C3.59755 3.31967 3.16351 3.60935 2.79804 3.97481C2.43258 4.34028 2.1429 4.77432 1.94562 5.25203C1.74834 5.72974 1.64735 6.24171 1.64845 6.75855V12.2585C1.64735 12.7754 1.74834 13.2874 1.94562 13.7651C2.1429 14.2428 2.43258 14.6768 2.79804 15.0423C3.16351 15.4077 3.59755 15.6974 4.07526 15.8947C4.55297 16.092 5.06494 16.193 5.58178 16.1919H7.52345L9.14845 17.8085C9.25428 17.9277 9.38511 18.0211 9.53178 18.0836C9.67428 18.1419 9.82761 18.1735 9.98178 18.1752C10.1426 18.1744 10.3014 18.1404 10.4484 18.0752C10.5855 18.0161 10.71 17.9312 10.8151 17.8252L12.4818 16.1586H14.4234C15.4652 16.1563 16.4635 15.741 17.1993 15.0036C17.9352 14.2662 18.3484 13.267 18.3484 12.2252V6.72522C18.3337 5.68802 17.9082 4.69902 17.1651 3.97522ZM13.5318 8.30022L10.1984 11.6335C10.0647 11.7722 9.90412 11.8822 9.72644 11.9567C9.54877 12.0312 9.35777 12.0687 9.16511 12.0669C8.97099 12.0678 8.77855 12.031 8.59845 11.9585C8.42159 11.8801 8.26059 11.77 8.12345 11.6335L6.45678 9.96688C6.37963 9.88918 6.31854 9.79705 6.27699 9.69574C6.23545 9.59443 6.21426 9.48593 6.21465 9.37644C6.21504 9.26694 6.23699 9.15859 6.27925 9.05758C6.32151 8.95657 6.38325 8.86487 6.46095 8.78772C6.53864 8.71057 6.63078 8.64947 6.73209 8.60793C6.8334 8.56638 6.9419 8.5452 7.05139 8.54559C7.16089 8.54597 7.26924 8.56792 7.37025 8.61018C7.47126 8.65244 7.56296 8.71418 7.64011 8.79188L9.16511 10.3169L12.3818 7.10022C12.5412 6.9637 12.7463 6.89236 12.956 6.90046C13.1657 6.90856 13.3647 6.9955 13.5131 7.14391C13.6615 7.29233 13.7484 7.49128 13.7565 7.70101C13.7646 7.91074 13.6933 8.1158 13.5568 8.27522L13.5318 8.30022Z" fill="#597AF4"/>
</svg>
