<svg width="20" height="21" viewBox="0 0 20 21" fill="none" xmlns="http://www.w3.org/2000/svg">
<path d="M10.0013 9.9873C9.30908 9.9873 8.71936 9.74369 8.23214 9.25647C7.74491 8.76925 7.5013 8.17953 7.5013 7.4873C7.5013 6.79508 7.74491 6.20536 8.23214 5.71814C8.71936 5.23092 9.30908 4.9873 10.0013 4.9873C10.6935 4.9873 11.2832 5.23092 11.7705 5.71814C12.2577 6.20536 12.5013 6.79508 12.5013 7.4873C12.5013 8.17953 12.2577 8.76925 11.7705 9.25647C11.2832 9.74369 10.6935 9.9873 10.0013 9.9873ZM4.16797 15.1473V14.6406C4.16797 14.2967 4.26797 13.9751 4.46797 13.6756C4.66852 13.3756 4.93797 13.1429 5.2763 12.9773C6.06297 12.6001 6.85019 12.3173 7.63797 12.129C8.42519 11.9401 9.21297 11.8456 10.0013 11.8456C10.7896 11.8456 11.5777 11.9401 12.3655 12.129C13.1532 12.3179 13.9399 12.6006 14.7255 12.9773C15.0644 13.1429 15.3338 13.3756 15.5338 13.6756C15.7344 13.9751 15.8346 14.2967 15.8346 14.6406V15.1473C15.8346 15.3917 15.7516 15.5973 15.5855 15.764C15.4194 15.9295 15.2138 16.0123 14.9688 16.0123H5.03464C4.78964 16.0123 4.58408 15.9292 4.41797 15.7631C4.25186 15.597 4.16852 15.3917 4.16797 15.1473Z" fill="#597AF4"/>
</svg>
