<svg width="20" height="21" viewBox="0 0 20 21" fill="none" xmlns="http://www.w3.org/2000/svg">
<path d="M10 1.3335C5.83333 1.3335 2.5 4.66683 2.5 8.8335V14.6668C2.5 15.3299 2.76339 15.9658 3.23223 16.4346C3.70107 16.9034 4.33696 17.1668 5 17.1668H7.5V10.5002H4.16667V8.8335C4.16667 7.2864 4.78125 5.80267 5.87521 4.70871C6.96917 3.61474 8.4529 3.00016 10 3.00016C11.5471 3.00016 13.0308 3.61474 14.1248 4.70871C15.2188 5.80267 15.8333 7.2864 15.8333 8.8335V10.5002H12.5V17.1668H15.8333V18.0002H10V19.6668H15C15.663 19.6668 16.2989 19.4034 16.7678 18.9346C17.2366 18.4658 17.5 17.8299 17.5 17.1668V8.8335C17.5 4.66683 14.1417 1.3335 10 1.3335Z" fill="#597AF4"/>
</svg>
