<svg width="20" height="20" viewBox="0 0 20 20" fill="none" xmlns="http://www.w3.org/2000/svg">
<path d="M14.166 1.6665H5.83268C3.53268 1.6665 1.66602 3.52484 1.66602 5.8165V10.7998V11.6332C1.66602 13.9248 3.53268 15.7832 5.83268 15.7832H7.08268C7.30768 15.7832 7.60768 15.9332 7.74935 16.1165L8.99935 17.7748C9.54935 18.5082 10.4493 18.5082 10.9993 17.7748L12.2493 16.1165C12.4077 15.9082 12.6577 15.7832 12.916 15.7832H14.166C16.466 15.7832 18.3327 13.9248 18.3327 11.6332V5.8165C18.3327 3.52484 16.466 1.6665 14.166 1.6665ZM6.66602 9.99984C6.19935 9.99984 5.83268 9.62484 5.83268 9.1665C5.83268 8.70817 6.20768 8.33317 6.66602 8.33317C7.12435 8.33317 7.49935 8.70817 7.49935 9.1665C7.49935 9.62484 7.13268 9.99984 6.66602 9.99984ZM9.99935 9.99984C9.53268 9.99984 9.16602 9.62484 9.16602 9.1665C9.16602 8.70817 9.54102 8.33317 9.99935 8.33317C10.4577 8.33317 10.8327 8.70817 10.8327 9.1665C10.8327 9.62484 10.466 9.99984 9.99935 9.99984ZM13.3327 9.99984C12.866 9.99984 12.4993 9.62484 12.4993 9.1665C12.4993 8.70817 12.8743 8.33317 13.3327 8.33317C13.791 8.33317 14.166 8.70817 14.166 9.1665C14.166 9.62484 13.7993 9.99984 13.3327 9.99984Z" fill="#597AF4"/>
</svg>
