<svg width="20" height="21" viewBox="0 0 20 21" fill="none" xmlns="http://www.w3.org/2000/svg">
<path d="M1.5984 12.2351C2.10312 13.8827 3.11465 15.3292 4.48903 16.3687C5.69569 17.2769 7.13159 17.8308 8.63556 17.9682C10.1395 18.1056 11.652 17.8212 13.0033 17.1467C14.3546 16.4723 15.4912 15.4346 16.2855 14.1501C17.0798 12.8656 17.5003 11.3852 17.5 9.87494C17.5054 8.11217 16.9323 6.3963 15.8687 4.99057C14.8292 3.61619 13.3828 2.60466 11.7351 2.09994C11.6265 2.0665 11.5109 2.0633 11.4006 2.09068C11.2903 2.11806 11.1896 2.17498 11.1093 2.25532C11.0289 2.33567 10.972 2.43639 10.9446 2.54667C10.9172 2.65695 10.9204 2.7726 10.9539 2.88119C11.3141 4.07293 11.3444 5.34009 11.0413 6.54765C10.7382 7.7552 10.1132 8.85791 9.23281 9.73826C8.35246 10.6186 7.24976 11.2436 6.0422 11.5467C4.83465 11.8498 3.56748 11.8196 2.37574 11.4593C2.26715 11.4259 2.1515 11.4227 2.04122 11.4501C1.93095 11.4774 1.83022 11.5344 1.74988 11.6147C1.66953 11.695 1.61261 11.7958 1.58523 11.906C1.55785 12.0163 1.56106 12.132 1.59449 12.2406L1.5984 12.2351Z" fill="#597AF4"/>
</svg>
