<svg width="20" height="21" viewBox="0 0 20 21" fill="none" xmlns="http://www.w3.org/2000/svg">
<path d="M6.875 3C6.875 2.83424 6.80915 2.67527 6.69194 2.55806C6.57473 2.44085 6.41576 2.375 6.25 2.375C6.08424 2.375 5.92527 2.44085 5.80806 2.55806C5.69085 2.67527 5.625 2.83424 5.625 3V3.25083L5.59583 3.25333C5.00417 3.29833 4.505 3.39417 4.04917 3.61333C3.31209 3.96407 2.70459 4.53861 2.31333 5.255C2.07417 5.69833 1.97167 6.1825 1.9225 6.74917C1.875 7.30083 1.875 7.98417 1.875 8.84083V12.9917C1.875 13.8492 1.875 14.5333 1.9225 15.0842C1.9725 15.6508 2.07417 16.135 2.31333 16.5775C2.70445 17.2942 3.31196 17.869 4.04917 18.22C4.505 18.4392 5.00417 18.535 5.59583 18.58C6.17583 18.625 6.89583 18.625 7.8075 18.625H12.1925C13.1042 18.625 13.8242 18.625 14.4042 18.58C14.9958 18.5342 15.495 18.4392 15.9508 18.22C16.6879 17.8693 17.2954 17.2947 17.6867 16.5783C17.9258 16.135 18.0283 15.6508 18.0775 15.0842C18.125 14.5325 18.125 13.8492 18.125 12.9925V8.84167C18.125 7.98417 18.125 7.3 18.0775 6.74917C18.0275 6.1825 17.9258 5.69833 17.6867 5.25583C17.2955 4.53913 16.688 3.96429 15.9508 3.61333C15.495 3.39417 14.9958 3.29833 14.4042 3.25333L14.375 3.25V3C14.375 2.83424 14.3092 2.67527 14.1919 2.55806C14.0747 2.44085 13.9158 2.375 13.75 2.375C13.5842 2.375 13.4253 2.44085 13.3081 2.55806C13.1908 2.67527 13.125 2.83424 13.125 3V3.21083C12.8389 3.20861 12.5281 3.20778 12.1925 3.20833H7.80833C7.47278 3.20833 7.16194 3.20917 6.87583 3.21083L6.875 3ZM4.59167 4.74C4.83667 4.62167 5.14417 4.54667 5.625 4.505V4.66667C5.625 4.83243 5.69085 4.9914 5.80806 5.10861C5.92527 5.22582 6.08424 5.29167 6.25 5.29167C6.41576 5.29167 6.57473 5.22582 6.69194 5.10861C6.80915 4.9914 6.875 4.83243 6.875 4.66667V4.46083C7.19444 4.45878 7.51389 4.45795 7.83333 4.45833H12.1667C12.5217 4.45833 12.8411 4.45917 13.125 4.46083V4.66667C13.125 4.83243 13.1908 4.9914 13.3081 5.10861C13.4253 5.22582 13.5842 5.29167 13.75 5.29167C13.9158 5.29167 14.0747 5.22582 14.1919 5.10861C14.3092 4.9914 14.375 4.83243 14.375 4.66667V4.505C14.8558 4.54667 15.1633 4.62167 15.4083 4.74C15.908 4.97619 16.3204 5.36406 16.5867 5.84833C16.6817 6.025 16.75 6.23667 16.795 6.54167H3.205C3.25083 6.23667 3.31917 6.025 3.41417 5.84917C3.68012 5.36471 4.09219 4.97655 4.59167 4.74ZM11.8175 10.41C11.9519 10.507 12.0422 10.6535 12.0686 10.8171C12.095 10.9807 12.0553 11.1481 11.9583 11.2825L10.2083 13.705C10.1368 13.8039 10.044 13.8854 9.93665 13.9434C9.82933 14.0014 9.7103 14.0345 9.58842 14.0402C9.46655 14.0459 9.34495 14.024 9.23269 13.9762C9.12043 13.9284 9.02039 13.856 8.94 13.7642L8.07833 12.78C8.02427 12.7182 7.98291 12.6464 7.9566 12.5686C7.9303 12.4909 7.91957 12.4087 7.92502 12.3268C7.93048 12.2449 7.95201 12.1648 7.9884 12.0913C8.02478 12.0177 8.07531 11.952 8.13708 11.8979C8.19886 11.8439 8.27068 11.8025 8.34844 11.7762C8.4262 11.7499 8.50838 11.7392 8.59029 11.7446C8.6722 11.7501 8.75223 11.7716 8.82582 11.808C8.89941 11.8444 8.96511 11.8949 9.01917 11.9567L9.5175 12.5267L10.945 10.5508C11.042 10.4165 11.1885 10.3262 11.3521 10.2997C11.5157 10.2733 11.6831 10.313 11.8175 10.41Z" fill="#597AF4"/>
</svg>
