<svg width="20" height="21" viewBox="0 0 20 21" fill="none" xmlns="http://www.w3.org/2000/svg">
<path d="M6.24917 2.375C6.41493 2.375 6.5739 2.44085 6.69111 2.55806C6.80832 2.67527 6.87417 2.83424 6.87417 3V3.21083C7.16028 3.20861 7.47111 3.20778 7.80667 3.20833H12.1917C12.5272 3.20833 12.8381 3.20917 13.1242 3.21083V3C13.1242 2.83424 13.19 2.67527 13.3072 2.55806C13.4244 2.44085 13.5834 2.375 13.7492 2.375C13.9149 2.375 14.0739 2.44085 14.1911 2.55806C14.3083 2.67527 14.3742 2.83424 14.3742 3V3.25083C14.3842 3.25083 14.3939 3.25167 14.4033 3.25333C14.995 3.29833 15.4942 3.39417 15.95 3.61333C16.6871 3.96407 17.2946 4.53861 17.6858 5.255C17.925 5.69833 18.0275 6.1825 18.0767 6.74917C18.1242 7.30083 18.1242 7.98417 18.1242 8.84083V12.9917C18.1242 13.8492 18.1242 14.5333 18.0767 15.0842C18.0267 15.6508 17.925 16.135 17.6858 16.5775C17.2947 17.2942 16.6872 17.869 15.95 18.22C15.4942 18.4392 14.995 18.535 14.4033 18.58C13.8233 18.625 13.1033 18.625 12.1917 18.625H7.8075C6.89583 18.625 6.17583 18.625 5.59583 18.58C5.00417 18.5342 4.505 18.4392 4.04917 18.22C3.31209 17.8693 2.70459 17.2947 2.31333 16.5783C2.07417 16.135 1.97167 15.6508 1.9225 15.0842C1.875 14.5325 1.875 13.8492 1.875 12.9925V8.84167C1.875 7.98417 1.875 7.3 1.9225 6.74917C1.9725 6.1825 2.07417 5.69833 2.31333 5.25583C2.70445 4.53913 3.31196 3.96429 4.04917 3.61333C4.505 3.39417 5.00417 3.29833 5.59583 3.25333L5.62417 3.25V3C5.62417 2.83424 5.69001 2.67527 5.80722 2.55806C5.92444 2.44085 6.08341 2.375 6.24917 2.375ZM5.62417 4.505C5.14333 4.54667 4.83583 4.62167 4.59083 4.74C4.09117 4.97619 3.67881 5.36406 3.4125 5.84833C3.3175 6.025 3.24917 6.23667 3.20417 6.54167H16.795C16.7492 6.23667 16.6808 6.025 16.5858 5.84917C16.3199 5.36471 15.9078 4.97655 15.4083 4.74C15.1625 4.62167 14.855 4.54667 14.3742 4.505V4.66667C14.3742 4.83243 14.3083 4.9914 14.1911 5.10861C14.0739 5.22582 13.9149 5.29167 13.7492 5.29167C13.5834 5.29167 13.4244 5.22582 13.3072 5.10861C13.19 4.9914 13.1242 4.83243 13.1242 4.66667V4.46083C12.8403 4.45861 12.5208 4.45778 12.1658 4.45833H7.8325C7.4775 4.45833 7.15806 4.45917 6.87417 4.46083V4.66667C6.87417 4.83243 6.80832 4.9914 6.69111 5.10861C6.5739 5.22582 6.41493 5.29167 6.24917 5.29167C6.08341 5.29167 5.92444 5.22582 5.80722 5.10861C5.69001 4.9914 5.62417 4.83243 5.62417 4.66667V4.505Z" fill="#597AF4"/>
</svg>
