<svg width="16" height="16" viewBox="0 0 16 16" fill="none" xmlns="http://www.w3.org/2000/svg">
<path d="M14.2519 10.9373C14.1948 10.9699 14.1318 10.9909 14.0666 10.9991C14.0014 11.0073 13.9352 11.0026 13.8718 10.9851C13.8084 10.9677 13.7491 10.938 13.6972 10.8976C13.6453 10.8572 13.6019 10.807 13.5694 10.7498L12.3819 8.67485C11.6915 9.14165 10.93 9.4933 10.1269 9.7161L10.4938 11.9173C10.5046 11.9822 10.5026 12.0485 10.4878 12.1125C10.4729 12.1765 10.4457 12.2369 10.4075 12.2904C10.3693 12.3438 10.3209 12.3893 10.2652 12.424C10.2094 12.4588 10.1474 12.4822 10.0825 12.493C10.0559 12.4973 10.0289 12.4996 10.0019 12.4998C9.88364 12.4997 9.76925 12.4576 9.67907 12.381C9.5889 12.3045 9.52879 12.1984 9.50942 12.0817L9.1488 9.92047C8.38829 10.0263 7.6168 10.0263 6.8563 9.92047L6.49567 12.0817C6.47627 12.1986 6.41597 12.3048 6.32554 12.3814C6.23511 12.458 6.12042 12.5 6.00192 12.4998C5.97428 12.4997 5.9467 12.4974 5.91942 12.493C5.85461 12.4822 5.79255 12.4588 5.7368 12.424C5.68105 12.3893 5.63269 12.3438 5.5945 12.2904C5.55631 12.2369 5.52903 12.1765 5.51421 12.1125C5.4994 12.0485 5.49735 11.9822 5.50817 11.9173L5.87692 9.7161C5.07419 9.4926 4.31305 9.14031 3.62317 8.67297L2.43942 10.7498C2.37312 10.8654 2.26363 10.9498 2.13505 10.9847C2.00647 11.0195 1.86933 11.0018 1.7538 10.9355C1.63826 10.8692 1.5538 10.7597 1.51899 10.6311C1.48417 10.5025 1.50187 10.3654 1.56817 10.2498L2.81817 8.06235C2.37911 7.68302 1.97537 7.26464 1.61192 6.81235C1.5666 6.76174 1.53206 6.70243 1.51042 6.63803C1.48878 6.57363 1.48049 6.5055 1.48606 6.43779C1.49162 6.37008 1.51093 6.30421 1.5428 6.24422C1.57467 6.18422 1.61843 6.13134 1.67142 6.08882C1.7244 6.0463 1.7855 6.01502 1.85097 5.99689C1.91644 5.97876 1.98493 5.97417 2.05224 5.98339C2.11954 5.99261 2.18427 6.01545 2.24246 6.05052C2.30064 6.08559 2.35108 6.13214 2.39067 6.18735C3.42817 7.4711 5.24317 8.99985 8.00192 8.99985C10.7607 8.99985 12.5757 7.46922 13.6132 6.18735C13.6523 6.13101 13.7026 6.08333 13.761 6.04728C13.8194 6.01123 13.8845 5.98757 13.9524 5.97778C14.0203 5.96798 14.0895 5.97227 14.1557 5.99036C14.2218 6.00846 14.2836 6.03998 14.337 6.08296C14.3905 6.12594 14.4346 6.17946 14.4665 6.24019C14.4983 6.30093 14.5174 6.36758 14.5224 6.43599C14.5275 6.50441 14.5184 6.57313 14.4957 6.63787C14.473 6.70262 14.4373 6.76201 14.3907 6.81235C14.0272 7.26464 13.6235 7.68302 13.1844 8.06235L14.4344 10.2498C14.468 10.3069 14.4899 10.37 14.4989 10.4355C14.5078 10.5011 14.5037 10.5678 14.4868 10.6317C14.4698 10.6957 14.4403 10.7556 14.4 10.8081C14.3597 10.8605 14.3093 10.9045 14.2519 10.9373Z" fill="#9196A0"/>
</svg>
