<svg width="18" height="17" viewBox="0 0 18 17" fill="none" xmlns="http://www.w3.org/2000/svg">
<path d="M8.13163 0.520519C8.51547 -0.151583 9.48453 -0.151584 9.86837 0.520519L11.974 4.20742C12.1161 4.45637 12.3583 4.63233 12.639 4.69062L16.7961 5.55383C17.5539 5.71119 17.8534 6.63282 17.3328 7.20556L14.477 10.3474C14.2842 10.5596 14.1917 10.8443 14.223 11.1292L14.6866 15.3496C14.7712 16.119 13.9872 16.6886 13.2816 16.3705L9.41103 14.6253C9.14968 14.5075 8.85032 14.5075 8.58897 14.6253L4.71841 16.3705C4.01283 16.6886 3.22884 16.119 3.31336 15.3496L3.77702 11.1292C3.80832 10.8443 3.71582 10.5596 3.52299 10.3474L0.667195 7.20556C0.146599 6.63282 0.446055 5.71119 1.20387 5.55383L5.36099 4.69062C5.64169 4.63233 5.88387 4.45637 6.02605 4.20742L8.13163 0.520519Z" fill="#FFD029"/>
</svg>
