<svg width="24" height="24" viewBox="0 0 24 24" fill="none" xmlns="http://www.w3.org/2000/svg">
<path d="M22.5 15C22.5 14.4386 22.3425 13.8885 22.0454 13.4121C21.7483 12.9358 21.3235 12.5524 20.8193 12.3055C20.3151 12.0586 19.7518 11.9582 19.1933 12.0155C18.6349 12.0729 18.1037 12.2859 17.6603 12.6301C17.2168 12.9744 16.8789 13.4362 16.6849 13.963C16.4908 14.4898 16.4485 15.0605 16.5627 15.6101C16.6769 16.1598 16.9431 16.6664 17.3309 17.0723C17.7187 17.4782 18.2127 17.7671 18.7566 17.9062C18.7524 17.9373 18.7502 17.9686 18.75 18C18.75 18.7956 18.4339 19.5587 17.8713 20.1213C17.3087 20.6839 16.5456 21 15.75 21H13.5C12.7044 21 11.9413 20.6839 11.3787 20.1213C10.8161 19.5587 10.5 18.7956 10.5 18V14.2013C13.4503 13.8263 15.75 11.2509 15.75 8.17219V3.75C15.75 3.55109 15.671 3.36032 15.5303 3.21967C15.3897 3.07902 15.1989 3 15 3H12.75C12.5511 3 12.3603 3.07902 12.2197 3.21967C12.079 3.36032 12 3.55109 12 3.75C12 3.94891 12.079 4.13968 12.2197 4.28033C12.3603 4.42098 12.5511 4.5 12.75 4.5H14.25V8.17219C14.25 10.6641 12.2578 12.7181 9.81 12.75C9.21402 12.7579 8.6224 12.6474 8.06949 12.4248C7.51658 12.2022 7.0134 11.872 6.58916 11.4534C6.16492 11.0347 5.82808 10.536 5.59819 9.98605C5.3683 9.43614 5.24995 8.84603 5.25 8.25V4.5H6.75C6.94891 4.5 7.13968 4.42098 7.28033 4.28033C7.42098 4.13968 7.5 3.94891 7.5 3.75C7.5 3.55109 7.42098 3.36032 7.28033 3.21967C7.13968 3.07902 6.94891 3 6.75 3H4.5C4.30109 3 4.11032 3.07902 3.96967 3.21967C3.82902 3.36032 3.75 3.55109 3.75 3.75V8.25C3.75018 9.71128 4.28364 11.1223 5.25025 12.2182C6.21686 13.3141 7.55018 14.0195 9 14.2022V18C9.00124 19.1931 9.47575 20.337 10.3194 21.1806C11.163 22.0243 12.3069 22.4988 13.5 22.5H15.75C16.9431 22.4988 18.087 22.0243 18.9306 21.1806C19.7743 20.337 20.2488 19.1931 20.25 18C20.2498 17.9686 20.2476 17.9373 20.2434 17.9062C20.8889 17.7412 21.461 17.3659 21.8696 16.8397C22.2782 16.3135 22.5 15.6662 22.5 15ZM19.5 15.75C19.3517 15.75 19.2067 15.706 19.0833 15.6236C18.96 15.5412 18.8639 15.4241 18.8071 15.287C18.7503 15.15 18.7355 14.9992 18.7644 14.8537C18.7934 14.7082 18.8648 14.5746 18.9697 14.4697C19.0746 14.3648 19.2082 14.2934 19.3537 14.2644C19.4992 14.2355 19.65 14.2503 19.787 14.3071C19.9241 14.3639 20.0412 14.46 20.1236 14.5833C20.206 14.7067 20.25 14.8517 20.25 15C20.25 15.1989 20.171 15.3897 20.0303 15.5303C19.8897 15.671 19.6989 15.75 19.5 15.75Z" fill="white"/>
</svg>
