<svg width="25" height="24" viewBox="0 0 25 24" fill="none" xmlns="http://www.w3.org/2000/svg">
<path d="M22.0249 20.6251C21.9591 20.7391 21.8644 20.8338 21.7503 20.8997C21.6363 20.9655 21.5069 21.0001 21.3752 21.0001H3.37521C3.24362 21 3.11438 20.9652 3.00048 20.8993C2.88657 20.8335 2.792 20.7388 2.72627 20.6248C2.66053 20.5108 2.62594 20.3815 2.62598 20.2499C2.62601 20.1183 2.66066 19.9891 2.72646 19.8751C4.15427 17.4067 6.35458 15.6367 8.92239 14.7976C7.65224 14.0415 6.66541 12.8893 6.11345 11.518C5.56148 10.1468 5.47491 8.63224 5.86703 7.20701C6.25914 5.78178 7.10826 4.52467 8.28398 3.62873C9.4597 2.73279 10.897 2.24756 12.3752 2.24756C13.8534 2.24756 15.2907 2.73279 16.4664 3.62873C17.6422 4.52467 18.4913 5.78178 18.8834 7.20701C19.2755 8.63224 19.1889 10.1468 18.637 11.518C18.085 12.8893 17.0982 14.0415 15.828 14.7976C18.3958 15.6367 20.5961 17.4067 22.024 19.8751C22.0899 19.989 22.1247 20.1183 22.1249 20.25C22.1251 20.3816 22.0906 20.511 22.0249 20.6251Z" fill="#597AF4"/>
</svg>
