<svg width="25" height="24" viewBox="0 0 25 24" fill="none" xmlns="http://www.w3.org/2000/svg">
<path d="M22.0239 19.8751C20.5961 17.4067 18.3958 15.6367 15.8279 14.7976C17.0981 14.0415 18.0849 12.8893 18.6369 11.518C19.1889 10.1468 19.2754 8.63224 18.8833 7.20701C18.4912 5.78178 17.6421 4.52467 16.4664 3.62873C15.2906 2.73279 13.8533 2.24756 12.3751 2.24756C10.8969 2.24756 9.45963 2.73279 8.28391 3.62873C7.10818 4.52467 6.25906 5.78178 5.86695 7.20701C5.47484 8.63224 5.56141 10.1468 6.11337 11.518C6.66533 12.8893 7.65216 14.0415 8.92232 14.7976C6.35451 15.6357 4.15419 17.4057 2.72638 19.8751C2.67402 19.9605 2.63929 20.0555 2.62424 20.1545C2.60919 20.2535 2.61412 20.3545 2.63875 20.4516C2.66337 20.5487 2.70719 20.6399 2.76762 20.7197C2.82805 20.7996 2.90387 20.8666 2.99059 20.9167C3.07732 20.9667 3.1732 20.999 3.27258 21.0114C3.37195 21.0238 3.47282 21.0163 3.56921 20.9891C3.66561 20.9619 3.75559 20.9157 3.83384 20.8532C3.91209 20.7907 3.97703 20.7131 4.02482 20.6251C5.79107 17.5726 8.91294 15.7501 12.3751 15.7501C15.8373 15.7501 18.9592 17.5726 20.7254 20.6251C20.7732 20.7131 20.8382 20.7907 20.9164 20.8532C20.9947 20.9157 21.0847 20.9619 21.181 20.9891C21.2774 21.0163 21.3783 21.0238 21.4777 21.0114C21.5771 20.999 21.6729 20.9667 21.7597 20.9167C21.8464 20.8666 21.9222 20.7996 21.9826 20.7197C22.0431 20.6399 22.0869 20.5487 22.1115 20.4516C22.1361 20.3545 22.1411 20.2535 22.126 20.1545C22.111 20.0555 22.0762 19.9605 22.0239 19.8751ZM7.12513 9.00011C7.12513 7.96176 7.43304 6.94672 8.00992 6.08337C8.58679 5.22001 9.40673 4.5471 10.366 4.14974C11.3254 3.75238 12.381 3.64841 13.3994 3.85099C14.4178 4.05356 15.3532 4.55357 16.0874 5.2878C16.8217 6.02202 17.3217 6.95748 17.5243 7.97589C17.7268 8.99429 17.6229 10.0499 17.2255 11.0092C16.8281 11.9685 16.1552 12.7884 15.2919 13.3653C14.4285 13.9422 13.4135 14.2501 12.3751 14.2501C10.9832 14.2486 9.64871 13.695 8.66447 12.7108C7.68022 11.7265 7.12662 10.392 7.12513 9.00011Z" fill="#686E7D"/>
</svg>
