<svg width="25" height="24" viewBox="0 0 25 24" fill="none" xmlns="http://www.w3.org/2000/svg">
<path d="M6.88626 13.8561C6.8888 13.9069 6.88099 13.9577 6.86328 14.0054C6.84558 14.0531 6.81836 14.0967 6.78328 14.1335C6.7482 14.1704 6.706 14.1997 6.65923 14.2197C6.61247 14.2397 6.56212 14.25 6.51126 14.2499H2.37501C2.20573 14.2502 2.04134 14.1931 1.90858 14.0881C1.77581 13.9831 1.68248 13.8363 1.64376 13.6715C1.61965 13.5587 1.62076 13.4419 1.64702 13.3296C1.67327 13.2173 1.72402 13.1122 1.79564 13.0218C2.45733 12.1443 3.33528 11.4533 4.34376 11.0165C3.901 10.6128 3.56142 10.1089 3.35346 9.54696C3.14549 8.98505 3.0752 8.38149 3.14846 7.78682C3.22172 7.19216 3.43641 6.6237 3.77455 6.12907C4.11268 5.63444 4.56441 5.22803 5.09191 4.94388C5.61941 4.65973 6.20732 4.50612 6.80639 4.49591C7.40547 4.48569 7.99827 4.61918 8.53515 4.88518C9.07203 5.15118 9.53735 5.54195 9.89215 6.02477C10.2469 6.50758 10.4809 7.06839 10.5744 7.66021C10.5865 7.7398 10.5722 7.82115 10.5338 7.89189C10.4954 7.96262 10.4349 8.01888 10.3616 8.05209C9.32131 8.533 8.44032 9.30144 7.82255 10.2667C7.20477 11.232 6.87599 12.3539 6.87501 13.4999C6.87501 13.6199 6.87501 13.738 6.88626 13.8561ZM23.9488 13.0208C23.2886 12.1443 22.4126 11.4538 21.4063 11.0165C21.849 10.6128 22.1886 10.1089 22.3966 9.54696C22.6045 8.98505 22.6748 8.38149 22.6016 7.78682C22.5283 7.19216 22.3136 6.6237 21.9755 6.12907C21.6373 5.63444 21.1856 5.22803 20.6581 4.94388C20.1306 4.65973 19.5427 4.50612 18.9436 4.49591C18.3446 4.48569 17.7518 4.61918 17.2149 4.88518C16.678 5.15118 16.2127 5.54195 15.8579 6.02477C15.5031 6.50758 15.2691 7.06839 15.1756 7.66021C15.1636 7.7398 15.1778 7.82115 15.2162 7.89189C15.2546 7.96262 15.3151 8.01888 15.3884 8.05209C16.4287 8.533 17.3097 9.30144 17.9275 10.2667C18.5452 11.232 18.874 12.3539 18.875 13.4999C18.875 13.6199 18.875 13.738 18.8638 13.8561C18.8612 13.9069 18.869 13.9577 18.8867 14.0054C18.9044 14.0531 18.9317 14.0967 18.9667 14.1335C19.0018 14.1704 19.044 14.1997 19.0908 14.2197C19.1376 14.2397 19.1879 14.25 19.2388 14.2499H23.375C23.5443 14.2502 23.7087 14.1931 23.8414 14.0881C23.9742 13.9831 24.0675 13.8363 24.1063 13.6715C24.1305 13.5585 24.1294 13.4415 24.103 13.329C24.0765 13.2165 24.0255 13.1112 23.9534 13.0208H23.9488ZM15.605 17.069C16.3518 16.4971 16.9006 15.7055 17.1742 14.8056C17.4479 13.9057 17.4327 12.9427 17.1308 12.0518C16.8288 11.161 16.2554 10.3872 15.4909 9.83912C14.7265 9.29106 13.8095 8.99632 12.8689 8.99632C11.9283 8.99632 11.0114 9.29106 10.2469 9.83912C9.48247 10.3872 8.90899 11.161 8.60706 12.0518C8.30512 12.9427 8.28993 13.9057 8.5636 14.8056C8.83727 15.7055 9.38606 16.4971 10.1328 17.069C8.8077 17.6431 7.7012 18.6264 6.97532 19.8749C6.90949 19.9889 6.87483 20.1183 6.87484 20.2499C6.87485 20.3816 6.90952 20.511 6.97536 20.625C7.04121 20.739 7.13591 20.8337 7.24995 20.8995C7.36399 20.9653 7.49334 20.9999 7.62501 20.9999H18.125C18.2567 20.9999 18.386 20.9653 18.5001 20.8995C18.6141 20.8337 18.7088 20.739 18.7747 20.625C18.8405 20.511 18.8752 20.3816 18.8752 20.2499C18.8752 20.1183 18.8405 19.9889 18.7747 19.8749C18.0473 18.6256 16.9387 17.6422 15.6116 17.069H15.605Z" fill="#597AF4"/>
</svg>
