<svg width="25" height="24" viewBox="0 0 25 24" fill="none" xmlns="http://www.w3.org/2000/svg">
<path d="M23.8248 14.0999C23.746 14.159 23.6563 14.202 23.5609 14.2265C23.4655 14.2509 23.3662 14.2563 23.2687 14.2424C23.1712 14.2285 23.0774 14.1955 22.9927 14.1453C22.9079 14.0951 22.8339 14.0287 22.7748 13.9499C22.3227 13.3423 21.7343 12.8493 21.057 12.5106C20.3796 12.1719 19.6321 11.997 18.8748 11.9999C18.7273 11.9999 18.5831 11.9564 18.4602 11.8749C18.3373 11.7933 18.2412 11.6774 18.1839 11.5415C18.1449 11.4492 18.1249 11.3501 18.1249 11.2499C18.1249 11.1498 18.1449 11.0506 18.1839 10.9584C18.2412 10.8225 18.3373 10.7065 18.4602 10.625C18.5831 10.5434 18.7273 10.4999 18.8748 10.4999C19.2956 10.4999 19.708 10.3818 20.0651 10.1592C20.4222 9.93653 20.7097 9.61819 20.8949 9.24034C21.0801 8.86248 21.1557 8.44025 21.113 8.02161C21.0703 7.60296 20.911 7.20468 20.6533 6.87201C20.3956 6.53933 20.0498 6.2856 19.6551 6.13963C19.2604 5.99365 18.8327 5.96129 18.4205 6.04622C18.0084 6.13115 17.6283 6.32996 17.3234 6.62007C17.0186 6.91018 16.8012 7.27997 16.696 7.68742C16.6714 7.78284 16.6282 7.87247 16.569 7.95119C16.5097 8.02992 16.4355 8.09621 16.3507 8.14626C16.2658 8.19632 16.1719 8.22917 16.0743 8.24293C15.9767 8.2567 15.8774 8.25111 15.782 8.22649C15.6866 8.20186 15.5969 8.15869 15.5182 8.09943C15.4395 8.04016 15.3732 7.96598 15.3231 7.8811C15.2731 7.79622 15.2402 7.70231 15.2265 7.60474C15.2127 7.50717 15.2183 7.40784 15.2429 7.31242C15.3889 6.74741 15.6648 6.22426 16.0486 5.78463C16.4324 5.34499 16.9135 5.00099 17.4536 4.78C17.9937 4.55901 18.578 4.46713 19.1598 4.51167C19.7417 4.55621 20.3052 4.73594 20.8054 5.03656C21.3056 5.33718 21.7287 5.75039 22.0411 6.24332C22.3535 6.73624 22.5465 7.29527 22.6049 7.87593C22.6632 8.45659 22.5852 9.04285 22.3771 9.58806C22.1689 10.1333 21.8365 10.6224 21.406 11.0165C22.4259 11.458 23.3124 12.1587 23.9776 13.049C24.0367 13.128 24.0796 13.2179 24.1039 13.3135C24.1282 13.4091 24.1334 13.5085 24.1192 13.6062C24.105 13.7038 24.0717 13.7976 24.0212 13.8824C23.9707 13.9671 23.9039 14.041 23.8248 14.0999ZM18.7735 19.8749C18.8278 19.9603 18.8642 20.0557 18.8807 20.1556C18.8971 20.2554 18.8931 20.3575 18.8691 20.4557C18.845 20.554 18.8013 20.6463 18.7406 20.7272C18.6799 20.8082 18.6035 20.876 18.5159 20.9266C18.4284 20.9772 18.3315 21.0096 18.231 21.0218C18.1306 21.034 18.0288 21.0258 17.9316 20.9976C17.8345 20.9694 17.7441 20.9219 17.6658 20.8578C17.5875 20.7938 17.5229 20.7146 17.476 20.6249C17.0036 19.8249 16.3307 19.1619 15.5238 18.7014C14.7169 18.2408 13.8039 17.9986 12.8748 17.9986C11.9457 17.9986 11.0327 18.2408 10.2258 18.7014C9.41888 19.1619 8.746 19.8249 8.27355 20.6249C8.22666 20.7146 8.16213 20.7938 8.08383 20.8578C8.00554 20.9219 7.91509 20.9694 7.81795 20.9976C7.7208 21.0258 7.61896 21.034 7.51855 21.0218C7.41813 21.0096 7.32122 20.9772 7.23365 20.9266C7.14608 20.876 7.06965 20.8082 7.00896 20.7272C6.94827 20.6463 6.90458 20.554 6.88052 20.4557C6.85645 20.3575 6.85251 20.2554 6.86893 20.1556C6.88534 20.0557 6.92178 19.9603 6.97605 19.8749C7.70317 18.6256 8.81185 17.6424 10.1392 17.0699C9.39229 16.4981 8.84338 15.7066 8.56961 14.8066C8.29583 13.9067 8.31095 12.9436 8.61284 12.0527C8.91473 11.1618 9.48821 10.3879 10.2527 9.83981C11.0171 9.29169 11.9341 8.99692 12.8748 8.99692C13.8154 8.99692 14.7325 9.29169 15.4969 9.83981C16.2614 10.3879 16.8349 11.1618 17.1367 12.0527C17.4386 12.9436 17.4538 13.9067 17.18 14.8066C16.9062 15.7066 16.3573 16.4981 15.6104 17.0699C16.9377 17.6424 18.0464 18.6256 18.7735 19.8749ZM12.8748 16.4999C13.4681 16.4999 14.0482 16.324 14.5415 15.9943C15.0349 15.6647 15.4194 15.1962 15.6464 14.648C15.8735 14.0998 15.9329 13.4966 15.8172 12.9147C15.7014 12.3327 15.4157 11.7982 14.9961 11.3786C14.5766 10.959 14.042 10.6733 13.4601 10.5576C12.8781 10.4418 12.2749 10.5012 11.7267 10.7283C11.1786 10.9553 10.71 11.3399 10.3804 11.8332C10.0507 12.3266 9.8748 12.9066 9.8748 13.4999C9.8748 14.2956 10.1909 15.0586 10.7535 15.6212C11.3161 16.1839 12.0791 16.4999 12.8748 16.4999ZM7.6248 11.2499C7.6248 11.051 7.54578 10.8602 7.40513 10.7196C7.26447 10.5789 7.07371 10.4999 6.8748 10.4999C6.45398 10.4999 6.0416 10.3818 5.68452 10.1592C5.32743 9.93653 5.03994 9.61819 4.8547 9.24034C4.66946 8.86248 4.5939 8.44025 4.63661 8.02161C4.67931 7.60296 4.83856 7.20468 5.09627 6.87201C5.35398 6.53933 5.69983 6.2856 6.09451 6.13963C6.4892 5.99365 6.91692 5.96129 7.32908 6.04622C7.74124 6.13115 8.12132 6.32996 8.42615 6.62007C8.73098 6.91018 8.94834 7.27997 9.05355 7.68742C9.10327 7.88012 9.22751 8.04517 9.39893 8.14626C9.57035 8.24736 9.77491 8.27621 9.96761 8.22649C10.1603 8.17676 10.3254 8.05252 10.4264 7.8811C10.5275 7.70968 10.5564 7.50512 10.5067 7.31242C10.3606 6.74741 10.0848 6.22426 9.70099 5.78463C9.31721 5.34499 8.83612 5.00099 8.296 4.78C7.75588 4.55901 7.17164 4.46713 6.58976 4.51167C6.00788 4.55621 5.44442 4.73594 4.94423 5.03656C4.44403 5.33718 4.0209 5.75039 3.7085 6.24332C3.3961 6.73624 3.20306 7.29527 3.14474 7.87593C3.08641 8.45659 3.16441 9.04285 3.37252 9.58806C3.58064 10.1333 3.91313 10.6224 4.34355 11.0165C3.32475 11.4585 2.43922 12.1591 1.7748 13.049C1.65532 13.2081 1.60396 13.4082 1.632 13.6052C1.66005 13.8022 1.7652 13.98 1.92433 14.0995C2.08346 14.2189 2.28353 14.2703 2.48053 14.2422C2.67753 14.2142 2.85532 14.1091 2.9748 13.9499C3.42685 13.3423 4.01525 12.8493 4.69263 12.5106C5.37002 12.1719 6.11746 11.997 6.8748 11.9999C7.07371 11.9999 7.26447 11.9209 7.40513 11.7803C7.54578 11.6396 7.6248 11.4488 7.6248 11.2499Z" fill="#686E7D"/>
</svg>
